<svg width="45" height="38" viewBox="0 0 45 38" fill="none" xmlns="http://www.w3.org/2000/svg">
<path d="M45 4.48389L45 19.0043L44.9999 33.5247C44.9999 35.9963 43.0486 38 40.6416 38L35.1937 38C31.5618 32.6296 24.1453 21.7716 23.5351 21.3029L37.0996 1.87615C39.5679 -1.65885 45 0.134173 45 4.48389Z" fill="#CCA084"/>
<path d="M33.1235 38C29.4915 32.6296 22.0751 21.7716 21.4649 21.3029L7.90037 1.87615C5.4321 -1.65884 -1.15427e-05 0.134175 -1.46502e-06 4.48389L6.58186e-05 33.5247C7.15451e-05 35.9963 1.95137 38 4.35842 38L33.1235 38Z" fill="#D99D77"/>
</svg>
